Coordinates
version=1
nRows=12
nColumns=24
inDegrees=yes

Units are S.I. units (second, meters, Newtons, ...)
Angles are in degrees.

endheader
time	pelvis_tilt	pelvis_list	pelvis_rotation	pelvis_tx	pelvis_ty	pelvis_tz	hip_flexion_r	hip_adduction_r	hip_rotation_r	knee_angle_r	ankle_angle_r	subtalar_angle_r	mtp_angle_r	hip_flexion_l	hip_adduction_l	hip_rotation_l	knee_angle_l	ankle_angle_l	subtalar_angle_l	mtp_angle_l	lumbar_extension	lumbar_bending	lumbar_rotation
      2.97000000	    -10.11285186	     10.71122093	     -4.59439579	     -2.21857262	     -0.03389526	      0.43632622	     15.97422297	    -11.74751390	      6.37132872	    -59.09783862	    -17.91754779	      3.03771575	     18.27811384	     28.09604862	     13.85971367	      3.06015296	    -22.56322317	     -2.40408598	     -3.86690694	     -0.29703064	      8.09688222	    -11.59737563	     14.03641525
      2.97500000	    -10.14276492	     10.68777206	     -4.54833065	     -2.21153124	     -0.03271930	      0.43566609	     17.05704091	    -11.72303410	      6.38099618	    -59.83925583	    -17.94283240	      2.19189241	     18.04472873	     27.44212615	     13.98181306	      3.30279568	    -22.17834358	     -2.22883035	     -4.08774376	     -0.40618246	      8.09833836	    -11.52909145	     13.81203335
      2.98000000	    -10.15165688	     10.63423942	     -4.49787224	     -2.20455602	     -0.03151670	      0.43503074	     18.09493214	    -11.66898373	      6.37075634	    -60.48663359	    -17.82187301	      1.55909221	     17.85075136	     26.76510602	     14.07196960	      3.56814015	    -21.80018020	     -2.03139070	     -4.24527229	     -0.49344796	      8.06556288	    -11.43534105	     13.60407395
      2.98500000	    -10.17080817	     10.52327004	     -4.44070834	     -2.19757170	     -0.03027009	      0.43437301	     19.10464555	    -11.55467826	      6.33890100	    -61.01672367	    -17.59213895	      1.14419207	     17.71188085	     26.07899723	     14.10967684	      3.89624670	    -21.40979816	     -1.84103971	     -4.43993708	     -0.62558506	      8.04601805	    -11.27784372	     13.37692941
      2.99000000	    -10.18195448	     10.37740951	     -4.37138394	     -2.19059741	     -0.02898899	      0.43368240	     20.06833480	    -11.41093066	      6.28524680	    -61.43514164	    -17.23750710	      0.94478018	     17.70178627	     25.37377906	     14.11819118	      4.25651122	    -21.01381286	     -1.65652698	     -4.64248989	     -0.79307069	      8.01324440	    -11.08423299	     13.12799287
      2.99500000	    -10.18247570	     10.19806107	     -4.29896666	     -2.18365186	     -0.02766436	      0.43299009	     20.98728777	    -11.23363375	      6.21065466	    -61.74077488	    -16.79540713	      0.88735536	     17.83035630	     24.64833804	     14.09021042	      4.63087040	    -20.60809099	     -1.47827544	     -4.83725819	     -0.97586649	      7.96472929	    -10.85668819	     12.87322392
      3.00000000	    -10.18099159	      9.97997807	     -4.21261208	     -2.17672493	     -0.02630937	      0.43226712	     21.86651835	    -11.02198194	      6.10144734	    -61.93606501	    -16.27627357	      0.94897820	     18.07674270	     23.91133354	     14.02484503	      5.03558564	    -20.19665594	     -1.30841959	     -5.03286882	     -1.17742704	      7.90960767	    -10.59067867	     12.59921264
      3.00500000	    -10.17352108	      9.73448050	     -4.10647835	     -2.16981850	     -0.02492723	      0.43150680	     22.70240276	    -10.79039156	      5.95864583	    -62.02456246	    -15.69207808	      1.11333864	     18.43161721	     23.15860012	     13.93344011	      5.46101898	    -19.77440334	     -1.14706725	     -5.21128949	     -1.39811169	      7.84322803	    -10.29904191	     12.30224836
      3.01000000	    -10.16181283	      9.45524758	     -3.99057620	     -2.16292526	     -0.02352716	      0.43075018	     23.49756494	    -10.52141769	      5.79309251	    -62.01168366	    -15.05515135	      1.34281283	     18.84793581	     22.39244303	     13.79934193	      5.88558627	    -19.33967882	     -0.97739829	     -5.35797020	     -1.59695817	      7.76851666	     -9.97506196	     11.99594622
      3.01500000	    -10.09468689	      9.18589657	     -3.87204297	     -2.15602011	     -0.02206954	      0.42993896	     24.20081421	    -10.27879848	      5.61248130	    -61.87868869	    -14.44181967	      1.55889772	     19.58539719	     21.54399632	     13.68299042	      6.35432153	    -18.87115340	     -0.80323963	     -5.52378108	     -1.97526390	      7.64018470	     -9.66321945	     11.71243084
      3.02000000	    -10.09724092	      8.86144025	     -3.71001680	     -2.14919618	     -0.02071752	      0.42917095	     24.95228865	     -9.96623823	      5.38504530	    -61.69954791	    -13.72978043	      1.84221090	     19.96394572	     20.79154816	     13.48030176	      6.74646469	    -18.42382311	     -0.59919050	     -5.49312040	     -2.00255407	      7.57014198	     -9.30607041	     11.36067076
      3.02500000	    -10.06767992	      8.53608989	     -3.54487107	     -2.14236516	     -0.01935013	      0.42838803	     25.63915393	     -9.65868118	      5.14411391	    -61.42786543	    -13.00842739	      2.11774099	     20.34850975	     19.99142851	     13.27156251	      7.13011830	    -17.94317092	     -0.43269550	     -5.48977022	     -2.03012532	      7.46828544	     -8.94974242	     11.01252432
